<svg xmlns="http://www.w3.org/2000/svg" viewBox="0 0 128 128">
  <defs>
    <linearGradient id="g" x1="0" y1="0" x2="1" y2="1">
      <stop offset="0%" stop-color="#00d4ff"/>
      <stop offset="100%" stop-color="#3b82f6"/>
    </linearGradient>
  </defs>
  <rect width="128" height="128" rx="28" fill="url(#g)"/>
  <path d="M32 48c0-8.8 7.2-16 16-16h32c8.8 0 16 7.2 16 16v24c0 8.8-7.2 16-16 16H48c-8.8 0-16-7.2-16-16V48Z" fill="#0f172a"/>
  <path d="M32 56c0-8.8 7.2-16 16-16h32c8.8 0 16 7.2 16 16v24c0 8.8-7.2 16-16 16H48c-8.8 0-16-7.2-16-16V56Z" fill="#0f172a" opacity="0.85"/>
  <circle cx="54" cy="68" r="8" fill="#ffffff"/>
  <circle cx="86" cy="68" r="8" fill="#ffffff"/>
  <path d="M48 88c6 6 18 6 24 0" stroke="#ffffff" stroke-width="8" stroke-linecap="round" fill="none"/>
  <path d="M48 42c0-6.6 5.4-12 12-12h16c6.6 0 12 5.4 12 12v8H48v-8Z" fill="#ffffff" opacity="0.15"/>
  <path d="M46 36h36v12H46z" fill="#ffffff" opacity="0.08"/>
  <path d="M44 46h40v24H44z" fill="#ffffff" opacity="0.06"/>
</svg>
